<?xml version="1.0" standalone="no"?>
<!DOCTYPE svg PUBLIC "-//W3C//DTD SVG 20010904//EN"
 "http://www.w3.org/TR/2001/REC-SVG-20010904/DTD/svg10.dtd">
<svg version="1.0" xmlns="http://www.w3.org/2000/svg"
 width="1280.000000pt" height="1207.000000pt" viewBox="0 0 1280.000000 1207.000000"
 preserveAspectRatio="xMidYMid meet">
<g transform="translate(0.000000,1207.000000) scale(0.100000,-0.100000)"
fill="#000000" stroke="none">
<path d="M2916 12053 c-3 -10 -96 -364 -206 -788 -111 -423 -327 -1251 -481
-1840 -154 -588 -356 -1360 -449 -1715 -93 -355 -322 -1232 -510 -1950 -651
-2488 -902 -3448 -1076 -4114 -96 -368 -179 -677 -185 -687 -5 -10 -9 -56 -9
-103 l0 -85 42 -6 c24 -3 273 -33 553 -66 719 -84 2074 -245 2238 -265 76 -9
140 -14 142 -12 5 5 26 112 585 2983 100 512 203 1040 229 1175 31 158 52 245
60 245 6 0 45 -63 85 -140 57 -110 1454 -2886 2223 -4417 l134 -268 105 0 c58
0 104 4 104 9 0 8 1383 2681 2305 4456 110 211 198 370 206 370 13 0 19 -27
207 -995 34 -173 145 -740 246 -1260 101 -520 237 -1217 302 -1550 64 -333
118 -607 120 -609 3 -3 712 81 1804 215 382 46 565 69 815 99 116 13 229 27
253 31 l43 5 -4 92 c-5 80 -187 816 -1397 5650 l-1393 5557 -116 -1 -116 -1
-60 -121 c-251 -509 -3310 -6497 -3319 -6497 -7 0 -680 1367 -1496 3038 -816
1670 -1544 3160 -1618 3310 l-133 272 -114 0 c-100 0 -114 -2 -119 -17z"/>
</g>
</svg>
